<svg width="24" height="24" viewBox="0 0 24 24" fill="none" xmlns="http://www.w3.org/2000/svg">
<path fill-rule="evenodd" clip-rule="evenodd" d="M6.99995 16C6.99995 15.45 7.44995 15 7.99995 15C8.54995 15 8.99995 15.45 8.99995 16C8.99995 16.55 8.54995 17 7.99995 17C7.44995 17 6.99995 16.55 6.99995 16ZM11.9999 15H15.9999C16.5499 15 16.9999 15.45 16.9999 16C16.9999 16.55 16.5499 17 15.9999 17H11.9999C11.4499 17 10.9999 16.55 10.9999 16C10.9999 15.45 11.4499 15 11.9999 15ZM18 20H6.00005C5.44905 20 5.00005 19.551 5.00005 19V13H19V19C19 19.551 18.5511 20 18 20ZM6.00005 6H7.00005V7C7.00005 7.55 7.45005 8 8.00005 8C8.55005 8 9.00005 7.55 9.00005 7V6H15V7C15 7.55 15.4501 8 16 8C16.55 8 17 7.55 17 7V6H18C18.5511 6 19 6.449 19 7V11H5.00005V7C5.00005 6.449 5.44905 6 6.00005 6ZM18 4.00002H17V3.00002C17 2.45002 16.55 2.00002 16 2.00002C15.45 2.00002 15 2.45002 15 3.00002V4.00002H9V3.00002C9 2.45002 8.55 2.00002 8 2.00002C7.45 2.00002 7 2.45002 7 3.00002V4.00002H6C4.346 4.00002 3 5.34602 3 7.00002V19C3 20.654 4.346 22 6 22H18C19.654 22 21 20.654 21 19V7.00002C21 5.34602 19.654 4.00002 18 4.00002Z" fill="#7B838A"/>
<mask id="mask0_2_3362" style="mask-type:alpha" maskUnits="userSpaceOnUse" x="3" y="2" width="18" height="20">
<path fill-rule="evenodd" clip-rule="evenodd" d="M6.99995 16C6.99995 15.45 7.44995 15 7.99995 15C8.54995 15 8.99995 15.45 8.99995 16C8.99995 16.55 8.54995 17 7.99995 17C7.44995 17 6.99995 16.55 6.99995 16ZM11.9999 15H15.9999C16.5499 15 16.9999 15.45 16.9999 16C16.9999 16.55 16.5499 17 15.9999 17H11.9999C11.4499 17 10.9999 16.55 10.9999 16C10.9999 15.45 11.4499 15 11.9999 15ZM18 20H6.00005C5.44905 20 5.00005 19.551 5.00005 19V13H19V19C19 19.551 18.5511 20 18 20ZM6.00005 6H7.00005V7C7.00005 7.55 7.45005 8 8.00005 8C8.55005 8 9.00005 7.55 9.00005 7V6H15V7C15 7.55 15.4501 8 16 8C16.55 8 17 7.55 17 7V6H18C18.5511 6 19 6.449 19 7V11H5.00005V7C5.00005 6.449 5.44905 6 6.00005 6ZM18 4.00002H17V3.00002C17 2.45002 16.55 2.00002 16 2.00002C15.45 2.00002 15 2.45002 15 3.00002V4.00002H9V3.00002C9 2.45002 8.55 2.00002 8 2.00002C7.45 2.00002 7 2.45002 7 3.00002V4.00002H6C4.346 4.00002 3 5.34602 3 7.00002V19C3 20.654 4.346 22 6 22H18C19.654 22 21 20.654 21 19V7.00002C21 5.34602 19.654 4.00002 18 4.00002Z" fill="white"/>
</mask>
<g mask="url(#mask0_2_3362)">
</g>
</svg>
