<svg width="25" height="25" viewBox="0 0 25 25" fill="none" xmlns="http://www.w3.org/2000/svg">
<circle cx="12.5" cy="12.5" r="12" fill="url(#paint0_linear_529_4447)" stroke="white"/>
<g clip-path="url(#clip0_529_4447)">
<path d="M14.516 13.3426C14.516 14.4542 13.6116 15.3585 12.5 15.3585C11.3884 15.3585 10.4844 14.4542 10.4844 13.3426C10.4844 12.231 11.3884 11.3266 12.5 11.3266C13.6116 11.3266 14.516 12.2313 14.516 13.3426ZM18.75 10.48V16.2058C18.75 16.9692 18.1311 17.588 17.3678 17.588H7.63221C6.86888 17.588 6.25 16.9692 6.25 16.2058V10.48C6.25 9.71672 6.86888 9.09783 7.63221 9.09783H9.33232V8.61959C9.33232 7.95164 9.87346 7.41016 10.5418 7.41016H14.4582C15.1265 7.41016 15.6677 7.95164 15.6677 8.61959V9.09749H17.3678C18.1311 9.09783 18.75 9.71672 18.75 10.48ZM15.5526 13.3426C15.5526 11.6594 14.1832 10.29 12.5 10.29C10.8172 10.29 9.44774 11.6594 9.44774 13.3426C9.44774 15.0258 10.8172 16.3952 12.5 16.3952C14.1832 16.3952 15.5526 15.0258 15.5526 13.3426Z" fill="white"/>
</g>
<defs>
<linearGradient id="paint0_linear_529_4447" x1="1.00911" y1="5.26686" x2="28.1724" y2="10.15" gradientUnits="userSpaceOnUse">
<stop stop-color="#6A58FB"/>
<stop offset="1" stop-color="#4599F4"/>
</linearGradient>
<clipPath id="clip0_529_4447">
<rect width="12.5" height="12.5" fill="white" transform="translate(6.25 6.25)"/>
</clipPath>
</defs>
</svg>
