<svg width="198" height="69" viewBox="0 0 198 69" fill="none" xmlns="http://www.w3.org/2000/svg">
<path d="M50.5164 21.7656H50.138V19.6138H50.5164V21.7656ZM51.1873 19.9212H49.473V19.6138H51.1873V19.9212ZM52.116 19.6138L52.7279 21.2543L53.3397 19.6138H53.6796L52.8624 21.7656H52.5934L51.7776 19.6138H52.116ZM51.9446 19.6138L52.0008 21.0755V21.7656H51.621V19.6138H51.9446ZM53.8363 19.6138V21.7656H53.455V21.0755L53.5126 19.6138H53.8363Z" fill="url(#paint0_linear_947_6819)"/>
<path d="M24.3569 43.472L17.2315 68L28.8666 42.5413L14.7061 31.253H32.805L38.0964 14.8009L43.9891 31.253L74.0238 26.9298H47.1459L38.0964 0L28.8666 26.9298H0.575684L24.3569 43.472Z" fill="url(#paint1_linear_947_6819)"/>
<path d="M45.6154 47.8086C45.6154 47.5524 45.5595 47.3258 45.4479 47.1287C45.3428 46.9317 45.1195 46.7379 44.7779 46.5474C44.4429 46.3504 43.9306 46.1369 43.2409 45.907C42.6235 45.6968 42.0225 45.4571 41.4379 45.1878C40.8533 44.9185 40.3278 44.6032 39.8615 44.2419C39.3951 43.8741 39.024 43.4439 38.7481 42.9513C38.4723 42.4521 38.3343 41.8708 38.3343 41.2074C38.3343 40.3666 38.5774 39.6441 39.0634 39.0398C39.5495 38.4289 40.2129 37.9593 41.0536 37.6309C41.8944 37.2959 42.8501 37.1284 43.9207 37.1284C44.9782 37.1284 45.9109 37.309 46.7189 37.6703C47.5333 38.025 48.1705 38.5373 48.6302 39.2073C49.0966 39.8773 49.3298 40.6786 49.3298 41.6113H45.6449C45.6449 41.3026 45.5792 41.03 45.4479 40.7935C45.3231 40.5571 45.126 40.3732 44.8567 40.2418C44.594 40.1104 44.2557 40.0448 43.8419 40.0448C43.4412 40.0448 43.103 40.1006 42.8271 40.2122C42.5578 40.3239 42.3542 40.4717 42.2162 40.6556C42.0849 40.833 42.0192 41.0333 42.0192 41.2566C42.0192 41.5128 42.1243 41.7361 42.3345 41.9266C42.5447 42.1171 42.8369 42.2944 43.2113 42.4586C43.5857 42.6228 44.0193 42.7871 44.5119 42.9513C45.5365 43.2797 46.4036 43.6639 47.113 44.104C47.8289 44.5375 48.3741 45.0564 48.7485 45.6607C49.1229 46.2584 49.3101 46.9678 49.3101 47.7889C49.3101 48.6625 49.09 49.4047 48.65 50.0155C48.2164 50.6198 47.599 51.0796 46.7977 51.3949C45.9963 51.7102 45.0538 51.8678 43.97 51.8678C43.2212 51.8678 42.4855 51.7726 41.763 51.5821C41.0471 51.3916 40.3968 51.096 39.8122 50.6954C39.2342 50.2947 38.7711 49.7824 38.423 49.1584C38.0814 48.5278 37.9107 47.7757 37.9107 46.9021H41.6152C41.6152 47.2962 41.6612 47.6247 41.7532 47.8874C41.8517 48.1501 41.9995 48.3636 42.1965 48.5278C42.3936 48.6855 42.6399 48.8004 42.9355 48.8726C43.231 48.9383 43.5759 48.9712 43.97 48.9712C44.3772 48.9712 44.6991 48.9153 44.9355 48.8037C45.1786 48.692 45.3526 48.5475 45.4577 48.3702C45.5628 48.1928 45.6154 48.0056 45.6154 47.8086ZM58.6006 51.6708H54.9059V37.3254H58.6006V51.6708ZM62.8372 40.3108H50.758V37.3254H62.8372V40.3108ZM66.167 51.6708H62.1964L67.4577 37.3254H69.9603L69.5267 40.7837L66.167 51.6708ZM68.8765 40.7837L68.3937 37.3254H70.9258L76.2166 51.6708H72.246L68.8765 40.7837ZM72.2066 49.2668H64.8468V46.2814H72.2066V49.2668ZM83.3199 37.3254C84.4431 37.3254 85.4152 37.4929 86.2363 37.8279C87.0573 38.1563 87.6912 38.6424 88.1378 39.2861C88.5845 39.9298 88.8078 40.7279 88.8078 41.6803C88.8078 42.5342 88.6797 43.2403 88.4236 43.7986C88.174 44.3503 87.8225 44.8035 87.3693 45.1582C86.9227 45.5064 86.3972 45.8052 85.7929 46.0548L84.5811 46.7938H79.9011L79.8814 43.8084H83.2805C83.6878 43.8084 84.026 43.7427 84.2953 43.6114C84.5712 43.48 84.7748 43.2862 84.9062 43.0301C85.0441 42.7673 85.1131 42.4455 85.1131 42.0645C85.1131 41.5128 84.962 41.0826 84.6599 40.7738C84.3577 40.4651 83.9111 40.3108 83.3199 40.3108H81.2804V51.6708H77.5857V37.3254H83.3199ZM82.2066 45.3553L86.1279 45.3257L89.2807 51.5131V51.6708H85.32L82.2066 45.3553ZM93.4874 47.0007V44.0153H96.985C97.4317 44.0153 97.7929 43.9431 98.0688 43.7986C98.3447 43.6541 98.5483 43.457 98.6797 43.2074C98.811 42.9513 98.8767 42.659 98.8767 42.3305C98.8767 41.9759 98.811 41.6442 98.6797 41.3354C98.5483 41.0267 98.3447 40.7804 98.0688 40.5965C97.7929 40.406 97.4317 40.3108 96.985 40.3108H94.8667V51.6708H91.1622V37.3254H96.985C98.1476 37.3254 99.1493 37.5422 99.9901 37.9757C100.837 38.4092 101.488 39.0004 101.941 39.7492C102.401 40.498 102.631 41.3519 102.631 42.3108C102.631 43.2436 102.401 44.0613 101.941 44.7641C101.488 45.4669 100.837 46.0154 99.9901 46.4095C99.1493 46.8036 98.1476 47.0007 96.985 47.0007H93.4874ZM110.532 37.3254C111.655 37.3254 112.627 37.4929 113.448 37.8279C114.269 38.1563 114.903 38.6424 115.35 39.2861C115.796 39.9298 116.02 40.7279 116.02 41.6803C116.02 42.5342 115.892 43.2403 115.636 43.7986C115.386 44.3503 115.035 44.8035 114.581 45.1582C114.135 45.5064 113.609 45.8052 113.005 46.0548L111.793 46.7938H107.113L107.093 43.8084H110.493C110.9 43.8084 111.238 43.7427 111.507 43.6114C111.783 43.48 111.987 43.2862 112.118 43.0301C112.256 42.7673 112.325 42.4455 112.325 42.0645C112.325 41.5128 112.174 41.0826 111.872 40.7738C111.57 40.4651 111.123 40.3108 110.532 40.3108H108.492V51.6708H104.798V37.3254H110.532ZM109.419 45.3553L113.34 45.3257L116.493 51.5131V51.6708H112.532L109.419 45.3553ZM130.68 44.7149C130.68 46.1993 130.407 47.4769 129.862 48.5475C129.324 49.6116 128.578 50.4326 127.626 51.0107C126.673 51.5821 125.583 51.8678 124.355 51.8678C123.113 51.8678 122.013 51.5821 121.054 51.0107C120.095 50.4326 119.343 49.6116 118.798 48.5475C118.259 47.4769 117.99 46.1993 117.99 44.7149V44.2912C117.99 42.8068 118.259 41.5325 118.798 40.4684C119.336 39.3978 120.082 38.5734 121.034 37.9954C121.993 37.4174 123.094 37.1284 124.335 37.1284C125.563 37.1284 126.654 37.4174 127.606 37.9954C128.565 38.5734 129.317 39.3978 129.862 40.4684C130.407 41.5325 130.68 42.8068 130.68 44.2912V44.7149ZM126.926 44.2715C126.926 43.3651 126.824 42.6064 126.621 41.9956C126.424 41.3847 126.131 40.9249 125.744 40.6162C125.356 40.3075 124.887 40.1531 124.335 40.1531C123.757 40.1531 123.277 40.3075 122.896 40.6162C122.516 40.9249 122.23 41.3847 122.039 41.9956C121.849 42.6064 121.754 43.3651 121.754 44.2715V44.7149C121.754 45.6016 121.849 46.3537 122.039 46.9711C122.236 47.5885 122.525 48.0582 122.906 48.38C123.294 48.6953 123.777 48.8529 124.355 48.8529C124.906 48.8529 125.373 48.6953 125.754 48.38C126.141 48.0582 126.434 47.5885 126.631 46.9711C126.828 46.3537 126.926 45.6016 126.926 44.7149V44.2715ZM140.049 47.8086C140.049 47.5524 139.994 47.3258 139.882 47.1287C139.777 46.9317 139.553 46.7379 139.212 46.5474C138.877 46.3504 138.365 46.1369 137.675 45.907C137.058 45.6968 136.456 45.4571 135.872 45.1878C135.287 44.9185 134.762 44.6032 134.295 44.2419C133.829 43.8741 133.458 43.4439 133.182 42.9513C132.906 42.4521 132.768 41.8708 132.768 41.2074C132.768 40.3666 133.011 39.6441 133.497 39.0398C133.984 38.4289 134.647 37.9593 135.488 37.6309C136.328 37.2959 137.284 37.1284 138.355 37.1284C139.412 37.1284 140.345 37.309 141.153 37.6703C141.967 38.025 142.604 38.5373 143.064 39.2073C143.531 39.8773 143.764 40.6786 143.764 41.6113H140.079C140.079 41.3026 140.013 41.03 139.882 40.7935C139.757 40.5571 139.56 40.3732 139.291 40.2418C139.028 40.1104 138.69 40.0448 138.276 40.0448C137.875 40.0448 137.537 40.1006 137.261 40.2122C136.992 40.3239 136.788 40.4717 136.65 40.6556C136.519 40.833 136.453 41.0333 136.453 41.2566C136.453 41.5128 136.558 41.7361 136.768 41.9266C136.979 42.1171 137.271 42.2944 137.645 42.4586C138.02 42.6228 138.453 42.7871 138.946 42.9513C139.971 43.2797 140.838 43.6639 141.547 44.104C142.263 44.5375 142.808 45.0564 143.183 45.6607C143.557 46.2584 143.744 46.9678 143.744 47.7889C143.744 48.6625 143.524 49.4047 143.084 50.0155C142.65 50.6198 142.033 51.0796 141.232 51.3949C140.43 51.7102 139.488 51.8678 138.404 51.8678C137.655 51.8678 136.92 51.7726 136.197 51.5821C135.481 51.3916 134.831 51.096 134.246 50.6954C133.668 50.2947 133.205 49.7824 132.857 49.1584C132.515 48.5278 132.345 47.7757 132.345 46.9021H136.049C136.049 47.2962 136.095 47.6247 136.187 47.8874C136.286 48.1501 136.434 48.3636 136.631 48.5278C136.828 48.6855 137.074 48.8004 137.369 48.8726C137.665 48.9383 138.01 48.9712 138.404 48.9712C138.811 48.9712 139.133 48.9153 139.37 48.8037C139.613 48.692 139.787 48.5475 139.892 48.3702C139.997 48.1928 140.049 48.0056 140.049 47.8086ZM148.187 47.0007V44.0153H151.685C152.132 44.0153 152.493 43.9431 152.769 43.7986C153.045 43.6541 153.248 43.457 153.38 43.2074C153.511 42.9513 153.577 42.659 153.577 42.3305C153.577 41.9759 153.511 41.6442 153.38 41.3354C153.248 41.0267 153.045 40.7804 152.769 40.5965C152.493 40.406 152.132 40.3108 151.685 40.3108H149.567V51.6708H145.862V37.3254H151.685C152.847 37.3254 153.849 37.5422 154.69 37.9757C155.537 38.4092 156.187 39.0004 156.641 39.7492C157.1 40.498 157.33 41.3519 157.33 42.3108C157.33 43.2436 157.1 44.0613 156.641 44.7641C156.187 45.4669 155.537 46.0154 154.69 46.4095C153.849 46.8036 152.847 47.0007 151.685 47.0007H148.187ZM169.458 51.6708H161.882V48.6953H169.458V51.6708ZM163.192 51.6708H159.488V37.3254H163.192V51.6708ZM168.483 45.7494H161.882V42.8823H168.483V45.7494ZM169.488 40.3108H161.882V37.3254H169.488V40.3108ZM182.927 46.7346C182.887 47.7462 182.618 48.6395 182.119 49.4145C181.619 50.183 180.926 50.784 180.04 51.2176C179.16 51.6511 178.122 51.8678 176.926 51.8678C175.632 51.8678 174.526 51.5854 173.606 51.0205C172.686 50.4491 171.984 49.6346 171.498 48.5771C171.018 47.5196 170.778 46.2584 170.778 44.7937V44.2124C170.778 42.7411 171.031 41.4767 171.537 40.4192C172.043 39.3616 172.749 38.5472 173.655 37.9757C174.568 37.4043 175.639 37.1185 176.867 37.1185C178.141 37.1185 179.212 37.3484 180.079 37.8082C180.953 38.268 181.626 38.8953 182.099 39.6901C182.578 40.4848 182.861 41.3814 182.946 42.3798H179.261C179.248 41.631 179.068 41.0727 178.72 40.7049C178.371 40.337 177.754 40.1531 176.867 40.1531C176.335 40.1531 175.895 40.2812 175.547 40.5374C175.205 40.787 174.949 41.2074 174.778 41.7985C174.614 42.3831 174.532 43.1812 174.532 44.1927V44.7937C174.532 45.8118 174.604 46.6164 174.749 47.2076C174.9 47.7922 175.15 48.2092 175.498 48.4588C175.852 48.7084 176.329 48.8332 176.926 48.8332C177.419 48.8332 177.836 48.761 178.178 48.6165C178.519 48.472 178.779 48.2454 178.956 47.9367C179.14 47.6279 179.235 47.2273 179.242 46.7346H182.927ZM191.705 51.6708H188.01V37.3254H191.705V51.6708ZM195.941 40.3108H183.862V37.3254H195.941V40.3108Z" fill="url(#paint2_linear_947_6819)"/>
<path d="M40.2595 65.0952H39.2506V59.357H40.2595V65.0952ZM42.0487 60.1768H37.4772V59.357H42.0487V60.1768ZM43.2799 65.0952H42.2119L44.3716 59.357H45.0494L44.9824 60.1728L43.2799 65.0952ZM44.6869 60.1728L44.612 59.357H45.2938L47.4613 65.0952H46.3933L44.6869 60.1728ZM46.3263 63.7828H43.2011V62.9631H46.3263V63.7828ZM49.5201 65.0952H48.5033V59.357H49.5201V65.0952ZM50.6473 62.1354L49.3152 63.5463L49.1379 62.5295L50.0758 61.3472L51.7232 59.357H52.9646L50.6473 62.1354ZM50.0049 62.3956L50.7064 61.7019L53.071 65.0952H51.8611L50.0049 62.3956ZM55.0864 65.0952H54.0736V59.357H55.0864V65.0952ZM61.2715 65.0952H60.2508L57.7206 61.0517V65.0952H56.7038V59.357H57.7206L60.2586 63.4084V59.357H61.2715V65.0952ZM67.2595 64.3582C67.1754 64.4633 67.048 64.5802 66.8772 64.7089C66.7064 64.835 66.4778 64.9441 66.1915 65.036C65.9077 65.128 65.5543 65.174 65.1313 65.174C64.6479 65.174 64.2209 65.0663 63.8505 64.8508C63.4827 64.6354 63.195 64.3214 62.9874 63.9089C62.7798 63.4964 62.6761 62.9998 62.6761 62.4192V62.033C62.6761 61.4497 62.772 60.9531 62.9638 60.5433C63.1556 60.1308 63.4275 59.8168 63.7795 59.6014C64.1342 59.3859 64.5559 59.2782 65.0446 59.2782C65.5175 59.2782 65.909 59.357 66.219 59.5147C66.5317 59.6723 66.7721 59.8904 66.9402 60.1689C67.1084 60.4447 67.2135 60.7627 67.2555 61.1226H66.2585C66.2296 60.9229 66.1704 60.7469 66.0811 60.5945C65.9918 60.4395 65.8643 60.3173 65.6988 60.228C65.5333 60.1387 65.3218 60.094 65.0643 60.094C64.7622 60.094 64.51 60.1702 64.3076 60.3226C64.1053 60.4723 63.9543 60.6917 63.8544 60.9807C63.7546 61.2671 63.7047 61.6152 63.7047 62.0251V62.4192C63.7047 62.8343 63.7625 63.1864 63.8781 63.4754C63.9963 63.7618 64.1645 63.9812 64.3825 64.1335C64.6006 64.2833 64.8633 64.3582 65.1707 64.3582C65.3914 64.3582 65.5727 64.3398 65.7146 64.303C65.8565 64.2662 65.9681 64.2216 66.0496 64.169C66.1337 64.1165 66.198 64.0665 66.2427 64.0193V62.9079H65.0683V62.1433H67.2595V64.3582ZM71.712 65.0952H70.644L72.8037 59.357H73.4816L73.4146 60.1728L71.712 65.0952ZM73.119 60.1728L73.0441 59.357H73.7259L75.8935 65.0952H74.8254L73.119 60.1728ZM74.7585 63.7828H71.6332V62.9631H74.7585V63.7828ZM78.8232 65.0952H77.8143V59.357H78.8232V65.0952ZM80.6124 60.1768H76.0409V59.357H80.6124V60.1768ZM85.5521 62.5571H82.5333V61.7374H85.5521V62.5571ZM82.7855 65.0952H81.7687V59.357H82.7855V65.0952ZM86.3364 65.0952H85.3235V59.357H86.3364V65.0952ZM91.5125 65.0952H88.6356V64.2794H91.5125V65.0952ZM88.9193 65.0952H87.9026V59.357H88.9193V65.0952ZM96.4364 65.0952H93.4058V64.2794H96.4364V65.0952ZM93.6896 65.0952H92.6728V59.357H93.6896V65.0952ZM96.0384 62.5414H93.4058V61.7374H96.0384V62.5414ZM96.4167 60.1768H93.4058V59.357H96.4167V60.1768ZM100.103 65.0952H99.0943V59.357H100.103V65.0952ZM101.892 60.1768H97.3208V59.357H101.892V60.1768ZM106.812 65.0952H103.782V64.2794H106.812V65.0952ZM104.065 65.0952H103.049V59.357H104.065V65.0952ZM106.414 62.5414H103.782V61.7374H106.414V62.5414ZM106.793 60.1768H103.782V59.357H106.793V60.1768ZM111.023 63.6133C111.023 63.4583 110.99 63.3269 110.924 63.2192C110.861 63.1089 110.742 63.0077 110.566 62.9158C110.39 62.8212 110.136 62.7227 109.805 62.6202C109.535 62.5387 109.284 62.4455 109.052 62.3404C108.824 62.2353 108.624 62.1144 108.453 61.9778C108.283 61.8386 108.149 61.6783 108.051 61.497C107.957 61.3131 107.91 61.1016 107.91 60.8625C107.91 60.5498 107.996 60.2753 108.17 60.0388C108.343 59.7997 108.583 59.6132 108.891 59.4792C109.198 59.3452 109.554 59.2782 109.959 59.2782C110.39 59.2782 110.76 59.357 111.07 59.5147C111.38 59.6697 111.618 59.8799 111.784 60.1452C111.952 60.4106 112.036 60.7062 112.036 61.032H111.019C111.019 60.8507 110.98 60.6891 110.901 60.5472C110.825 60.4027 110.708 60.291 110.55 60.2122C110.392 60.1308 110.191 60.0901 109.947 60.0901C109.718 60.0901 109.528 60.1242 109.376 60.1925C109.223 60.2608 109.11 60.3528 109.037 60.4684C108.963 60.584 108.926 60.7154 108.926 60.8625C108.926 61.0017 108.971 61.1252 109.06 61.233C109.15 61.3407 109.285 61.4392 109.466 61.5285C109.648 61.6152 109.874 61.6993 110.144 61.7808C110.57 61.9042 110.923 62.0487 111.204 62.2143C111.485 62.3798 111.694 62.5755 111.831 62.8015C111.97 63.0274 112.04 63.2954 112.04 63.6054C112.04 63.9286 111.956 64.2084 111.788 64.4449C111.619 64.6787 111.382 64.8587 111.074 64.9848C110.767 65.1109 110.406 65.174 109.99 65.174C109.715 65.174 109.443 65.1372 109.175 65.0636C108.907 64.9874 108.664 64.8745 108.446 64.7247C108.23 64.5723 108.057 64.3818 107.925 64.1532C107.797 63.9247 107.732 63.6554 107.732 63.3453H108.749C108.749 63.5293 108.781 63.6856 108.844 63.8143C108.907 63.9431 108.995 64.0495 109.108 64.1335C109.221 64.215 109.352 64.2741 109.502 64.3109C109.654 64.3477 109.817 64.3661 109.99 64.3661C110.219 64.3661 110.409 64.3345 110.562 64.2715C110.714 64.2058 110.829 64.1165 110.905 64.0035C110.984 63.8905 111.023 63.7605 111.023 63.6133ZM117.931 65.0952H116.922V59.357H117.931V65.0952ZM119.72 60.1768H115.148V59.357H119.72V60.1768ZM125.322 62.3758C125.322 62.9565 125.222 63.4557 125.022 63.8734C124.823 64.2912 124.544 64.613 124.187 64.839C123.832 65.0623 123.416 65.174 122.937 65.174C122.47 65.174 122.055 65.0623 121.692 64.839C121.332 64.613 121.05 64.2912 120.845 63.8734C120.642 63.4557 120.541 62.9565 120.541 62.3758V62.0803C120.541 61.4996 120.642 61.0004 120.845 60.5827C121.047 60.1623 121.328 59.8405 121.688 59.6171C122.048 59.3912 122.462 59.2782 122.93 59.2782C123.408 59.2782 123.826 59.3912 124.183 59.6171C124.54 59.8405 124.819 60.1623 125.018 60.5827C125.221 61.0004 125.322 61.4996 125.322 62.0803V62.3758ZM124.301 62.0724C124.301 61.6494 124.247 61.2934 124.139 61.0044C124.032 60.7127 123.875 60.4934 123.671 60.3462C123.466 60.1965 123.219 60.1216 122.93 60.1216C122.646 60.1216 122.401 60.1965 122.197 60.3462C121.994 60.4934 121.838 60.7127 121.728 61.0044C121.62 61.2934 121.566 61.6494 121.566 62.0724V62.3758C121.566 62.7989 121.621 63.1562 121.732 63.4478C121.842 63.7394 122 63.9601 122.204 64.1099C122.409 64.2597 122.654 64.3345 122.937 64.3345C123.229 64.3345 123.476 64.2597 123.678 64.1099C123.883 63.9601 124.038 63.7394 124.143 63.4478C124.249 63.1562 124.301 62.7989 124.301 62.3758V62.0724ZM131.319 65.0952H130.31V59.357H131.319V65.0952ZM133.108 60.1768H128.537V59.357H133.108V60.1768ZM138.048 62.5571H135.029V61.7374H138.048V62.5571ZM135.282 65.0952H134.265V59.357H135.282V65.0952ZM138.832 65.0952H137.82V59.357H138.832V65.0952ZM144.162 65.0952H141.132V64.2794H144.162V65.0952ZM141.415 65.0952H140.399V59.357H141.415V65.0952ZM143.764 62.5414H141.132V61.7374H143.764V62.5414ZM144.143 60.1768H141.132V59.357H144.143V60.1768ZM152.347 65.0952H151.326L148.796 61.0517V65.0952H147.779V59.357H148.796L151.334 63.4084V59.357H152.347V65.0952ZM157.677 65.0952H154.646V64.2794H157.677V65.0952ZM154.93 65.0952H153.913V59.357H154.93V65.0952ZM157.279 62.5414H154.646V61.7374H157.279V62.5414ZM157.657 60.1768H154.646V59.357H157.657V60.1768ZM160.863 61.4221L162.057 59.357H163.231L161.505 62.2024L163.271 65.0952H162.088L160.863 62.9906L159.633 65.0952H158.455L160.224 62.2024L158.494 59.357H159.669L160.863 61.4221ZM166.776 65.0952H165.767V59.357H166.776V65.0952ZM168.565 60.1768H163.993V59.357H168.565V60.1768ZM175.564 65.0952H172.687V64.2794H175.564V65.0952ZM172.97 65.0952H171.954V59.357H172.97V65.0952ZM180.487 65.0952H177.457V64.2794H180.487V65.0952ZM177.741 65.0952H176.724V59.357H177.741V65.0952ZM180.089 62.5414H177.457V61.7374H180.089V62.5414ZM180.468 60.1768H177.457V59.357H180.468V60.1768ZM185.23 59.357H186.353L184.304 65.0952H183.543L183.736 64.0114L185.23 59.357ZM183.851 64.0114L184.056 65.0952H183.295L181.25 59.357H182.369L183.851 64.0114ZM191.155 65.0952H188.124V64.2794H191.155V65.0952ZM188.408 65.0952H187.391V59.357H188.408V65.0952ZM190.757 62.5414H188.124V61.7374H190.757V62.5414ZM191.135 60.1768H188.124V59.357H191.135V60.1768ZM195.969 65.0952H193.092V64.2794H195.969V65.0952ZM193.375 65.0952H192.359V59.357H193.375V65.0952Z" fill="url(#paint3_linear_947_6819)"/>
<defs>
<linearGradient id="paint0_linear_947_6819" x1="49.6083" y1="19.6083" x2="54.947" y2="20.808" gradientUnits="userSpaceOnUse">
<stop stop-color="#6A58FB"/>
<stop offset="1" stop-color="#4599F4"/>
</linearGradient>
<linearGradient id="paint1_linear_947_6819" x1="3.54038" y1="14.3258" x2="82.9298" y2="29.7412" gradientUnits="userSpaceOnUse">
<stop stop-color="#6A58FB"/>
<stop offset="1" stop-color="#4599F4"/>
</linearGradient>
<linearGradient id="paint2_linear_947_6819" x1="43.7581" y1="36.991" x2="137.265" y2="126.643" gradientUnits="userSpaceOnUse">
<stop stop-color="#6A58FB"/>
<stop offset="1" stop-color="#4599F4"/>
</linearGradient>
<linearGradient id="paint3_linear_947_6819" x1="43.7178" y1="58.6232" x2="70.4406" y2="122.276" gradientUnits="userSpaceOnUse">
<stop stop-color="#6A58FB"/>
<stop offset="1" stop-color="#4599F4"/>
</linearGradient>
</defs>
</svg>
