<svg width="40" height="40" viewBox="0 0 40 40" fill="none" xmlns="http://www.w3.org/2000/svg">
<rect y="5.72205e-06" width="40" height="40" rx="20" fill="#F4F7FE"/>
<rect x="0.18" y="0.180006" width="39.64" height="39.64" rx="19.82" stroke="#004AAD" stroke-opacity="0.3" stroke-width="0.36"/>
<path d="M20 28C19.1163 28 18.4 27.2837 18.4 26.4H21.6C21.6 27.2837 20.8836 28 20 28ZM26.4 25.6H13.6V24L15.2 23.2V18.8C15.2 16.0304 16.3368 14.2344 18.4 13.744V12H21.6V13.744C23.6632 14.2336 24.8 16.0288 24.8 18.8V23.2L26.4 24V25.6ZM20 15C19.0237 14.937 18.0822 15.3738 17.5 16.16C17.002 16.9476 16.7577 17.8691 16.8 18.8V24H23.2V18.8C23.2422 17.8691 22.9979 16.9477 22.5 16.16C21.9177 15.3738 20.9762 14.937 20 15Z" fill="#333333"/>
</svg>
