<svg width="14" height="14" viewBox="0 0 14 14" fill="none" xmlns="http://www.w3.org/2000/svg">
<path d="M13.7854 12.5103L10.6117 9.38471C11.3758 8.38292 11.7883 7.16353 11.7869 5.91059C11.7869 2.71021 9.14306 0.106445 5.89344 0.106445C2.64382 0.106445 0 2.71021 0 5.91059C0 9.11098 2.64382 11.7147 5.89344 11.7147C7.16566 11.7161 8.4038 11.3099 9.421 10.5574L12.5947 13.683C12.7554 13.8244 12.9649 13.8999 13.1803 13.894C13.3957 13.8881 13.6006 13.8011 13.753 13.6511C13.9054 13.501 13.9936 13.2992 13.9997 13.0871C14.0057 12.8749 13.929 12.6686 13.7854 12.5103V12.5103ZM1.68384 5.91059C1.68384 5.09063 1.93073 4.28907 2.39329 3.6073C2.85584 2.92552 3.51329 2.39414 4.2825 2.08035C5.0517 1.76657 5.89811 1.68447 6.71469 1.84443C7.53127 2.0044 8.28135 2.39925 8.87008 2.97905C9.4588 3.55886 9.85973 4.29757 10.0222 5.10178C10.1846 5.90599 10.1012 6.73958 9.7826 7.49713C9.46399 8.25468 8.92443 8.90216 8.23217 9.35771C7.5399 9.81326 6.72602 10.0564 5.89344 10.0564C4.7774 10.0551 3.70745 9.61788 2.91828 8.84067C2.12912 8.06346 1.68518 7.00973 1.68384 5.91059V5.91059Z" fill="#7B838A"/>
</svg>
