<svg width="24" height="24" viewBox="0 0 24 24" fill="none" xmlns="http://www.w3.org/2000/svg">
<path d="M17.4998 22.0001C16.4178 22.0126 15.3922 21.5182 14.7281 20.6638C14.064 19.8095 13.8378 18.6936 14.1168 17.6481L7.85685 14.0701C6.77513 15.0611 5.18953 15.2709 3.88733 14.5952C2.58514 13.9195 1.84372 12.5023 2.03121 11.0473C2.21871 9.59226 3.29518 8.40932 4.72612 8.08583C6.15707 7.76234 7.6377 8.3672 8.43285 9.60008L14.1158 6.35108C14.0423 6.07327 14.0034 5.78744 13.9998 5.50008C13.9855 3.8268 15.1476 2.37322 16.7831 2.0189C18.4185 1.66458 20.078 2.50683 20.7575 4.036C21.437 5.56517 20.9498 7.36131 19.5908 8.33759C18.2318 9.31387 16.3741 9.20217 15.1418 8.07008L8.99085 11.5851C8.98476 11.8444 8.94851 12.1021 8.88285 12.3531L15.1418 15.9301C16.2941 14.8726 18.0086 14.7094 19.3397 15.5304C20.6708 16.3514 21.2945 17.9568 20.8667 19.4611C20.4389 20.9654 19.0638 22.0024 17.4998 22.0001ZM17.4998 17.0001C16.6714 17.0001 15.9998 17.6717 15.9998 18.5001C15.9998 19.3285 16.6714 20.0001 17.4998 20.0001C18.3283 20.0001 18.9998 19.3285 18.9998 18.5001C18.9998 17.6717 18.3283 17.0001 17.4998 17.0001ZM5.49985 10.0001C4.67142 10.0001 3.99985 10.6717 3.99985 11.5001C3.99985 12.3285 4.67142 13.0001 5.49985 13.0001C6.32827 13.0001 6.99985 12.3285 6.99985 11.5001C6.99985 10.6717 6.32827 10.0001 5.49985 10.0001ZM17.4998 4.00008C16.6714 4.00008 15.9998 4.67165 15.9998 5.50008C15.9998 6.32851 16.6714 7.00008 17.4998 7.00008C18.3283 7.00008 18.9998 6.32851 18.9998 5.50008C18.9998 4.67165 18.3283 4.00008 17.4998 4.00008Z" fill="#7B838A"/>
</svg>
